# xmcd
#
# Track frame offsets: 
#        150
#        21972
#        39722
#        56050
#        75180
#        99460
#        113027
#        130772
#        146467
#        161180
#
# Disc length: 2339 seconds
#
# Revision: 3
# Processed by: cddbd v1.5.2PL0 Copyright (c) Steve Scherf et al.
# Submitted via: ExactAudioCopy v0.95a4
#
DISCID=7d09210a
DTITLE=The Judds - Love Can Build A Bridge
DYEAR=1990
DGENRE=Country
TTITLE0=Born To Be Blue
TTITLE1=Calling In The Wind
TTITLE2=In My Dreams
TTITLE3=Rompin' Stompin' Bad News Blues
TTITLE4=Love Can Build A Bridge
TTITLE5=This Country's Rockin'
TTITLE6=One Hundred And Two
TTITLE7=John Deere Tractor
TTITLE8=Talk About Love
TTITLE9=Are The Roses Not Blooming?
EXTD=Year: 1990\n\n\n
EXTT0=
EXTT1=
EXTT2=
EXTT3=
EXTT4=
EXTT5=
EXTT6=
EXTT7=
EXTT8=
EXTT9=
PLAYORDER=
